<svg id="Layer_1" data-name="Layer 1" xmlns="http://www.w3.org/2000/svg" viewBox="0 0 89.71 89.71">
  <title>Attack</title>
  <g>
    <path d="M86.44,83.88a6.32,6.32,0,0,0-2.38,4.78,5.84,5.84,0,0,0,3.38,5.17A5.63,5.63,0,1,0,89.65,83l-0.4,0L79.9,73.68l5.44-5.44a1.55,1.55,0,0,0,0-2.18L83.19,63.9a1.55,1.55,0,0,0-2.18,0L64.9,80a1.55,1.55,0,0,0,0,2.18l2.16,2.16a1.55,1.55,0,0,0,2.18,0l5.44-5.44,7.68,7.68,0,0,0.2-.3a8,8,0,0,1,.91-1,7.52,7.52,0,0,1,1.91-1.32,8,8,0,0,1,1.47-.58c0.36-.11.57-0.15,0.57-0.15s-0.18.11-.48,0.32A5.2,5.2,0,0,0,86.44,83.88Z" transform="translate(-5.57 -4.56)" fill="#fff"/>
    <path d="M11.8,32.15a4.86,4.86,0,0,0,1.78,2.73L65,73.78l3.48-3.48L26.84,26,71.2,67.54l3.6-3.6L36.16,12.36a4.85,4.85,0,0,0-2.79-1.82L7.36,4.6A1.46,1.46,0,0,0,5.62,6.35Z" transform="translate(-5.57 -4.56)" fill="#fff"/>
  </g>
</svg>
