<svg id="Layer_1" data-name="Layer 1" xmlns="http://www.w3.org/2000/svg" viewBox="0 0 78.34 94.4">
  <title>Defense</title>
  <path d="M89.13,18.61A2.55,2.55,0,0,0,87,16.11a82.54,82.54,0,0,1-17.21-4.26,126.68,126.68,0,0,1-18.5-8.7,2.34,2.34,0,0,0-2.5,0,123.07,123.07,0,0,1-18.46,8.7,83.3,83.3,0,0,1-17.16,4.26,2.74,2.74,0,0,0-2.27,2.5Q10,54.21,26.41,76.85a69.52,69.52,0,0,0,22.34,20,2.46,2.46,0,0,0,2.59,0,71.22,71.22,0,0,0,22.25-20Q90,54.23,89.13,18.61Z" transform="translate(-10.83 -2.8)" fill="#fff"/>
</svg>
